<?xml version="1.0" encoding="utf-8"?>
<!-- Generator: Adobe Illustrator 20.0.0, SVG Export Plug-In . SVG Version: 6.00 Build 0)  -->
<svg version="1.1" id="Layer_1" xmlns="http://www.w3.org/2000/svg" xmlns:xlink="http://www.w3.org/1999/xlink" x="0px" y="0px"
	 viewBox="0 0 1400 900" style="enable-background:new 0 0 1400 900;" xml:space="preserve">
<style type="text/css">
	.st0{clip-path:url(#SVGID_2_);fill:#292938;}
	.st1{clip-path:url(#SVGID_2_);fill:#252533;}
	.st2{clip-path:url(#SVGID_2_);fill:#27283D;}
	.st3{opacity:0.35;clip-path:url(#SVGID_2_);}
	.st4{fill:#939598;}
	.st5{fill:#6D6E71;}
	.st6{fill:#808285;}
	.st7{fill:#BCBEC0;}
	.st8{fill:#58595B;}
	.st9{clip-path:url(#SVGID_2_);}
	.st10{fill:#B02A25;}
	.st11{fill:#944734;}
	.st12{fill:#C97961;}
	.st13{fill:#62110F;}
	.st14{fill:#BC553E;}
	.st15{fill:#5A291F;}
	.st16{fill:#79382D;}
</style>
<g>
	<defs>
		<rect id="SVGID_1_" width="1400" height="900"/>
	</defs>
	<clipPath id="SVGID_2_">
		<use xlink:href="#SVGID_1_"  style="overflow:visible;"/>
	</clipPath>
	<rect x="-37.5" y="-23" class="st0" width="1474.5" height="946.1"/>
	<polygon class="st1" points="-37.5,-23 876.8,593.6 -37.5,923 	"/>
	<polygon class="st2" points="-37.5,923 1437,387.9 1437,923 	"/>
	<g class="st3">
		<g>
			<polygon class="st4" points="236.5,606.2 150,636.1 167.3,546.2 			"/>
			<polygon class="st5" points="150,636.1 218.4,590.5 159.9,584.7 			"/>
			<polygon class="st6" points="218.4,590.5 167.3,546.2 159.9,584.7 			"/>
		</g>
		<g>
			<polygon class="st4" points="250.2,338.2 260.9,309.6 280.3,333.2 			"/>
			<polygon class="st5" points="260.9,309.6 258.1,336.9 272,323.1 			"/>
			<polygon class="st6" points="258.1,336.9 280.3,333.2 272,323.1 			"/>
		</g>
		<g>
			<polygon class="st4" points="774,224.2 702.5,250.8 715.1,175.6 			"/>
			<polygon class="st5" points="702.5,250.8 758.6,211.5 709.7,207.8 			"/>
			<polygon class="st6" points="758.6,211.5 715.1,175.6 709.7,207.8 			"/>
		</g>
		<g>
			<polygon class="st4" points="470.4,145.1 506.9,172.8 464.7,190.6 			"/>
			<polygon class="st5" points="506.9,172.8 468.9,157 482.7,182.9 			"/>
			<polygon class="st6" points="468.9,157 464.7,190.6 482.7,182.9 			"/>
		</g>
		<g>
			
				<rect x="564.7" y="50.6" transform="matrix(4.287931e-02 -0.9991 0.9991 4.287931e-02 488.3698 687.2317)" class="st7" width="76.3" height="76.3"/>
			<polygon class="st6" points="566.4,49 563.1,125.2 604.5,50.6 			"/>
			<polygon class="st4" points="639.3,128.5 563.1,125.2 640.7,95.8 			"/>
			<polygon class="st5" points="604.5,50.6 640.7,95.8 601.9,110.5 			"/>
			<polygon class="st8" points="604.5,50.6 640.7,95.8 642.6,52.3 			"/>
		</g>
		<g>
			
				<rect x="371.2" y="287.3" transform="matrix(9.040462e-02 -0.9959 0.9959 9.040462e-02 47.652 718.2069)" class="st7" width="91.5" height="91.5"/>
			<polygon class="st6" points="466.7,291.6 375.6,283.3 462.6,337.2 			"/>
			<polygon class="st4" points="367.3,374.5 375.6,283.3 406.4,378 			"/>
			<polygon class="st5" points="462.6,337.2 406.4,378 391,330.7 			"/>
			<polygon class="st8" points="462.6,337.2 406.4,378 458.4,382.7 			"/>
		</g>
		<g>
			
				<rect x="127.6" y="326.4" transform="matrix(0.2703 -0.9628 0.9628 0.2703 -224.6881 386.7871)" class="st7" width="30.5" height="30.5"/>
			<polygon class="st6" points="132.3,322.8 124,352.2 147,326.9 			"/>
			<polygon class="st4" points="153.4,360.4 124,352.2 156.9,347.8 			"/>
			<polygon class="st5" points="147,326.9 156.9,347.8 140.5,350 			"/>
			<polygon class="st8" points="147,326.9 156.9,347.8 161.6,331.1 			"/>
		</g>
		<g>
			
				<rect x="229.2" y="418.2" transform="matrix(0.5287 -0.8488 0.8488 0.5287 -255.5817 421.8183)" class="st7" width="45.8" height="45.8"/>
			<polygon class="st6" points="220.5,448.4 259.4,472.6 232.6,429 			"/>
			<polygon class="st4" points="283.6,433.7 259.4,472.6 266.9,423.3 			"/>
			<polygon class="st5" points="232.6,429 266.9,423.3 263.1,448 			"/>
			<polygon class="st8" points="232.6,429 266.9,423.3 244.7,409.5 			"/>
		</g>
		<g>
			<polygon class="st4" points="322.8,210.3 295.3,203.5 293.3,175.3 319.5,164.7 337.7,186.3 			"/>
			<polygon class="st8" points="295.3,203.5 322.8,210.3 330.2,198.3 			"/>
			<polygon class="st8" points="330.2,198.3 311.9,186.9 319.5,164.7 			"/>
			<polygon class="st6" points="293.3,175.3 311.9,186.9 295.3,203.5 			"/>
			<polygon class="st7" points="311.9,186.9 306.4,170 319.5,164.7 			"/>
			<polygon class="st6" points="330.2,198.3 337.7,186.3 319.5,164.7 			"/>
		</g>
		<g>
			<polygon class="st4" points="591.1,293.2 554.5,284.1 551.8,246.5 586.7,232.3 611,261.1 			"/>
			<polygon class="st8" points="554.5,284.1 591.1,293.2 601.1,277.2 			"/>
			<polygon class="st8" points="601.1,277.2 576.7,262 586.7,232.3 			"/>
			<polygon class="st6" points="551.8,246.5 576.7,262 554.5,284.1 			"/>
			<polygon class="st7" points="576.7,262 569.3,239.4 586.7,232.3 			"/>
			<polygon class="st6" points="601.1,277.2 611,261.1 586.7,232.3 			"/>
		</g>
		<g>
			<polygon class="st4" points="53.4,465.6 89.5,435.3 129.4,460.3 118.1,506 71,509.3 			"/>
			<polygon class="st8" points="89.5,435.3 53.4,465.6 62.2,487.5 			"/>
			<polygon class="st8" points="62.2,487.5 95.5,474 118.1,506 			"/>
			<polygon class="st6" points="129.4,460.3 95.5,474 89.5,435.3 			"/>
			<polygon class="st7" points="95.5,474 123.8,483.1 118.1,506 			"/>
			<polygon class="st6" points="62.2,487.5 71,509.3 118.1,506 			"/>
		</g>
		<g>
			<polygon class="st4" points="760.5,76 742.2,71.5 740.9,52.7 758.4,45.6 770.5,60 			"/>
			<polygon class="st8" points="742.2,71.5 760.5,76 765.5,68 			"/>
			<polygon class="st8" points="765.5,68 753.3,60.4 758.4,45.6 			"/>
			<polygon class="st6" points="740.9,52.7 753.3,60.4 742.2,71.5 			"/>
			<polygon class="st7" points="753.3,60.4 749.6,49.1 758.4,45.6 			"/>
			<polygon class="st6" points="765.5,68 770.5,60 758.4,45.6 			"/>
		</g>
		<g>
			<polygon class="st4" points="56.8,613.4 53.7,632 35,634.7 26.6,617.8 40.1,604.6 			"/>
			<polygon class="st8" points="53.7,632 56.8,613.4 48.5,609 			"/>
			<polygon class="st8" points="48.5,609 41.8,621.7 26.6,617.8 			"/>
			<polygon class="st6" points="35,634.7 41.8,621.7 53.7,632 			"/>
			<polygon class="st7" points="41.8,621.7 30.8,626.3 26.6,617.8 			"/>
			<polygon class="st6" points="48.5,609 40.1,604.6 26.6,617.8 			"/>
		</g>
	</g>
	<g class="st9">
		<polygon class="st10" points="323.6,652 585,156.8 1135.2,52.4 1559.8,417.5 1539.1,977.1 1088.7,1309.8 547.7,1165.1 		"/>
		<polygon class="st11" points="1135.2,52.4 997.7,663 1559.8,417.5 		"/>
		<polygon class="st12" points="1559.8,417.5 997.7,663 1539.1,977.1 		"/>
		<polygon class="st13" points="1135.2,52.4 811.2,666.1 323.6,652 		"/>
		<polygon class="st14" points="997.7,663 547.7,1165.1 1135.2,52.4 		"/>
		<polygon class="st15" points="585,156.8 938.9,197.4 323.6,652 		"/>
		<polygon class="st16" points="997.7,663 1081.1,1063.9 547.7,1165.1 		"/>
		<polygon class="st14" points="1539.1,977.1 547.7,1165.1 1088.7,1309.8 		"/>
	</g>
</g>
</svg>
